<svg width="46" height="39" viewBox="0 0 46 39" fill="none" xmlns="http://www.w3.org/2000/svg">
<path d="M12.0117 38.2969C10.2539 38.2969 8.65885 37.8574 7.22656 36.9785C5.79427 36.1322 4.57357 34.9603 3.56445 33.4629C2.58789 31.9655 1.82292 30.2077 1.26953 28.1895C0.748698 26.1712 0.488281 23.9902 0.488281 21.6465C0.488281 18.2936 0.878906 15.2988 1.66016 12.6621C2.44141 10.0254 3.4668 7.79557 4.73633 5.97266C6.03841 4.14974 7.50326 2.75 9.13086 1.77344C10.791 0.796875 12.4837 0.308594 14.209 0.308594C15.8366 0.308594 17.2038 0.601562 18.3105 1.1875C19.4173 1.77344 20.2962 2.52214 20.9473 3.43359C21.6309 4.34505 22.0866 5.35417 22.3145 6.46094C22.5749 7.53516 22.6562 8.56055 22.5586 9.53711C22.3958 11.4251 21.7448 12.9551 20.6055 14.127C19.4987 15.2988 18.2129 15.8848 16.748 15.8848C16.2598 15.8522 15.7552 15.7708 15.2344 15.6406C14.7786 15.5104 14.3066 15.3151 13.8184 15.0547C13.3301 14.7943 12.8743 14.4199 12.4512 13.9316C13.8184 14.0293 14.8763 13.7526 15.625 13.1016C16.3737 12.4505 16.9271 11.7181 17.2852 10.9043C17.6758 9.96029 17.9036 8.85352 17.9688 7.58398C17.9688 6.86784 17.8548 6.24935 17.627 5.72852C17.3991 5.17513 17.0898 4.73568 16.6992 4.41016C16.3411 4.05208 15.9505 3.79167 15.5273 3.62891C15.1042 3.46615 14.6973 3.38477 14.3066 3.38477C13.4277 3.38477 12.4674 3.72656 11.4258 4.41016C10.4167 5.09375 9.45638 6.13542 8.54492 7.53516C7.63346 8.90234 6.86849 10.6602 6.25 12.8086C5.66406 14.9245 5.37109 17.4473 5.37109 20.377C5.37109 23.2741 5.63151 25.6504 6.15234 27.5059C6.67318 29.3288 7.30794 30.7611 8.05664 31.8027C8.80534 32.8118 9.58659 33.5117 10.4004 33.9023C11.2467 34.2604 11.9629 34.4395 12.5488 34.4395C13.6882 34.3418 14.7298 33.9512 15.6738 33.2676C16.4876 32.6816 17.2526 31.7539 17.9688 30.4844C18.7174 29.1823 19.222 27.3268 19.4824 24.918C19.9056 24.9505 20.2474 25.0482 20.5078 25.2109C20.8008 25.3737 21.0449 25.5365 21.2402 25.6992C21.4355 25.8945 21.6146 26.1224 21.7773 26.3828C21.8099 26.4154 21.8099 26.7409 21.7773 27.3594C21.7448 27.9779 21.6309 28.7266 21.4355 29.6055C21.2402 30.4844 20.931 31.4284 20.5078 32.4375C20.1172 33.4466 19.5475 34.3906 18.7988 35.2695C18.0827 36.1484 17.1712 36.8646 16.0645 37.418C14.9577 38.0039 13.6068 38.2969 12.0117 38.2969ZM22.8281 32.9258C23.7721 31.2656 24.8301 29.5404 26.002 27.75C27.2064 25.9271 28.3294 24.2344 29.3711 22.6719C30.6081 20.8815 31.8613 19.1237 33.1309 17.3984C35.2467 14.2409 36.972 11.7832 38.3066 10.0254C39.6413 8.23503 40.5853 6.93294 41.1387 6.11914C40.3249 5.95638 39.332 5.79362 38.1602 5.63086C36.9883 5.4681 35.8164 5.40299 34.6445 5.43555C33.7005 5.43555 32.6426 5.48438 31.4707 5.58203C30.2988 5.64714 29.1921 5.82617 28.1504 6.11914C27.1413 6.41211 26.2786 6.85156 25.5625 7.4375C24.8464 7.99089 24.472 8.77214 24.4395 9.78125C24.0814 9.22786 23.8047 8.69076 23.6094 8.16992C23.4466 7.61654 23.3327 7.12826 23.2676 6.70508C23.1699 6.2168 23.1211 5.76107 23.1211 5.33789C23.1862 4.26367 23.3815 3.46615 23.707 2.94531C24.0651 2.42448 24.6348 2.08268 25.416 1.91992C26.2624 1.69206 27.3691 1.51302 28.7363 1.38281C30.1035 1.22005 31.9915 1.15495 34.4004 1.1875C35.5072 1.1875 36.5814 1.2526 37.623 1.38281C38.6973 1.51302 39.6576 1.67578 40.5039 1.87109C41.3828 2.03385 42.1315 2.21289 42.75 2.4082C43.401 2.57096 43.8568 2.70117 44.1172 2.79883C44.4102 2.92904 44.6217 3.20573 44.752 3.62891C44.8822 4.05208 44.9635 4.52409 44.9961 5.04492C45.0286 5.5332 45.0286 5.98893 44.9961 6.41211C44.9961 6.83529 44.9798 7.11198 44.9473 7.24219C44.8496 7.99089 44.6055 8.57682 44.2148 9C43.8242 9.42318 43.4987 9.84635 43.2383 10.2695L27.0762 33.6582C27.7923 33.4629 28.8177 33.2188 30.1523 32.9258C31.5195 32.6003 33.0983 32.3724 34.8887 32.2422C35.8652 32.2096 36.8255 32.1771 37.7695 32.1445C38.5833 32.1445 39.446 32.1608 40.3574 32.1934C41.3014 32.1934 42.1478 32.2585 42.8965 32.3887C43.222 32.6165 43.4661 32.9746 43.6289 33.4629C43.8242 33.9512 43.9056 34.472 43.873 35.0254C43.8405 35.6113 43.6777 36.1647 43.3848 36.6855C43.1243 37.2389 42.7337 37.6947 42.2129 38.0527C41.4642 37.7598 40.569 37.5319 39.5273 37.3691C38.4857 37.2389 37.4928 37.1413 36.5488 37.0762C35.4421 36.9785 34.319 36.9297 33.1797 36.9297C32.0729 36.9297 31.0312 36.9785 30.0547 37.0762C29.2083 37.1413 28.3945 37.2389 27.6133 37.3691C26.832 37.4993 26.3112 37.6784 26.0508 37.9062C25.8229 38.0039 25.5951 37.9551 25.3672 37.7598C25.1393 37.597 24.9277 37.3854 24.7324 37.125C24.5046 36.832 24.2767 36.474 24.0488 36.0508C23.821 35.6276 23.6257 35.2207 23.4629 34.8301C23.3001 34.472 23.1536 34.1302 23.0234 33.8047C22.9258 33.4792 22.8607 33.1862 22.8281 32.9258Z" fill="#267196"/>
</svg>
